<svg id="Save-Annotation--Streamline-Carbon" xmlns="http://www.w3.org/2000/svg" viewBox="0 0 16 16" height="16" width="16">
  <desc>
    Save Annotation Streamline Icon: https://streamlinehq.com
  </desc>
  <defs></defs>
  <title>watson-health--save--annotation</title>
  <path d="m10.78 7.55 -1.74 -2.175a1 1 0 0 0 -0.78 -0.375H2a1 1 0 0 0 -1 1v8a1 1 0 0 0 1 1h8a1 1 0 0 0 1 -1V8.175a1 1 0 0 0 -0.22 -0.625ZM4.5 6h3v1.5H4.5Zm3 8H4.5v-3h3Zm1 0v-3a1 1 0 0 0 -1 -1H4.5a1 1 0 0 0 -1 1v3H2V6h1.5v1.5a1 1 0 0 0 1 1h3a1 1 0 0 0 1 -1v-1.2l1.5 1.875V14Z" fill="#2f6ae3" stroke-width="0.5"></path>
  <path d="M14 10h-1.5v-1h1.5V2H4v1.5H3V2a1 1 0 0 1 1 -1h10a1 1 0 0 1 1 1v7a1 1 0 0 1 -1 1Z" fill="#2f6ae3" stroke-width="0.5"></path>
  <path d="M10 3h3v1h-3Z" fill="#2f6ae3" stroke-width="0.5"></path>
  <path d="M11 5h2v1h-2Z" fill="#2f6ae3" stroke-width="0.5"></path>
  <path id="_Transparent_Rectangle_" d="M0 0h16v16H0Z" fill="none" stroke-width="0.5"></path>
</svg>